<?xml version="1.0" encoding="UTF-8" standalone="no"?>
<!-- Created with Inkscape (http://www.inkscape.org/) -->

<svg
   version="1.1"
   id="svg1"
   width="731.08789"
   height="622.43115"
   viewBox="0 0 731.08789 622.43115"
   sodipodi:docname="BigCat18c.svg"
   inkscape:version="1.3.2 (091e20ef0f, 2023-11-25)"
   xmlns:inkscape="http://www.inkscape.org/namespaces/inkscape"
   xmlns:sodipodi="http://sodipodi.sourceforge.net/DTD/sodipodi-0.dtd"
   xmlns="http://www.w3.org/2000/svg"
   xmlns:svg="http://www.w3.org/2000/svg">
  <defs
     id="defs1" />
  <sodipodi:namedview
     id="namedview1"
     pagecolor="#ffffff"
     bordercolor="#000000"
     borderopacity="0.25"
     inkscape:showpageshadow="2"
     inkscape:pageopacity="0.0"
     inkscape:pagecheckerboard="0"
     inkscape:deskcolor="#d1d1d1"
     showgrid="false"
     inkscape:zoom="0.79101029"
     inkscape:cx="360.93083"
     inkscape:cy="381.15813"
     inkscape:window-width="1920"
     inkscape:window-height="1011"
     inkscape:window-x="0"
     inkscape:window-y="0"
     inkscape:window-maximized="1"
     inkscape:current-layer="layer2" />
  <g
     inkscape:groupmode="layer"
     id="layer2"
     inkscape:label="Layer 1">
    <path
       id="path1"
       style="fill:#000000"
       d="M 181.00101 17.406889 C 167.63626 18.841439 160.80207 20.203938 156.48538 22.293608 C 153.94089 23.525378 149.97123 24.537908 147.66312 24.543608 C 143.79332 24.553215 140.56083 25.847782 128.53421 32.199858 C 126.18756 33.439291 122.61885 35.222035 120.60453 36.160795 C 118.59019 37.099555 115.70979 39.649078 114.20413 41.826811 C 112.69847 44.004543 110.74624 45.808586 109.86624 45.836576 C 108.98625 45.864572 105.7543 47.057792 102.6846 48.486967 C 96.060474 51.570992 91.189238 57.803409 87.991244 67.287748 C 86.229515 72.512536 84.922954 74.346406 80.629916 77.619779 C 74.189652 82.53038 69.486498 90.60929 68.600619 98.281889 C 68.018082 103.32725 67.248774 104.75126 62.065463 110.37955 C 54.025235 119.11002 50.072733 127.79741 50.002963 136.88736 C 49.973338 140.74737 50.248217 144.38879 50.614291 144.98111 C 50.980365 145.57343 50.056537 147.90759 48.561557 150.16665 C 43.236915 158.21273 41.157964 165.97105 41.209994 177.60025 C 41.236242 183.46691 41.794569 189.56383 42.450229 191.14908 C 43.477578 193.63299 43.131976 195.13564 39.950229 202.02212 C 31.881166 219.48655 28.061277 242.3752 29.838901 262.60806 C 31.636513 283.06844 37.285315 302.85208 47.997104 326.19009 C 50.93178 332.58394 53.333041 338.64612 53.333041 339.66275 C 53.333041 343.70157 57.979272 359.35804 61.327182 366.60415 C 65.808614 376.30362 71.014145 384.12542 77.543979 390.96548 C 80.470609 394.03115 84.575086 400.20386 87.12015 405.36587 C 92.066842 415.39896 100.19887 425.09478 109.97562 432.61783 C 116.76605 437.84294 117.97678 441.14301 114.50687 444.9772 C 112.86737 446.78882 112.97731 449.32706 116.12015 481.86197 C 117.97642 501.07814 120.01841 523.03999 120.65726 530.66665 C 122.06453 547.46679 122.44506 582.4752 121.28031 588.00064 C 120.43712 592.00063 120.43743 591.99998 114.88578 592.0104 C 100.63334 592.03715 89.600619 603.36432 89.600619 617.96939 C 89.600619 624.21921 90.469792 625.5186 95.471713 626.74283 C 97.228428 627.17279 99.810875 628.41286 101.20999 629.49673 C 102.66585 630.62456 105.4955 631.46744 107.82523 631.46744 C 110.06416 631.46744 114.65957 632.18705 118.03812 633.06705 C 124.90281 634.85506 141.61818 635.20146 146.96976 633.66665 C 149.53162 632.93192 151.47012 633.0895 154.27249 634.2604 C 156.51526 635.19749 160.57024 635.74131 164.11038 635.58072 C 167.63742 635.42072 171.21215 635.89977 172.73734 636.73501 C 174.16974 637.51945 176.57039 638.5618 178.07132 639.05142 C 182.25617 640.41655 191.24909 639.3592 195.97562 636.9479 C 199.03786 635.38567 200.54648 635.10666 201.38382 635.944 C 203.12278 637.68296 213.19502 637.34364 221.47562 635.26822 C 225.50456 634.25842 230.8533 632.92468 233.36234 632.30337 C 242.39896 630.06562 245.17394 623.24083 243.25882 607.96744 C 241.00846 590.02049 241.62065 583.60616 247.96976 558.569 C 252.65047 540.11105 254.02925 532.64269 254.93656 520.84439 C 255.55876 512.75359 256.59953 501.35373 257.24906 495.51236 C 258.42417 484.9444 258.45452 484.86498 263.41507 479.51236 C 266.15698 476.55374 270.25818 471.81796 272.52835 468.98697 C 274.94543 465.97278 278.8962 462.7084 282.06156 461.11001 C 290.62282 456.78692 296.43828 452.48648 305.60062 443.70767 C 310.29394 439.2108 316.77239 434.04541 319.99906 432.2272 C 323.22572 430.40899 328.91813 426.45477 332.64749 423.44009 C 336.37687 420.42541 341.3601 417.27723 343.72171 416.444 C 349.87738 414.27216 358.3718 409.2228 363.82523 404.49478 C 366.4148 402.24967 370.76129 399.58058 373.48343 398.56314 C 380.30995 396.01163 387.59895 391.00038 394.95609 383.80142 C 399.97208 378.89326 401.29571 378.06496 401.79007 379.52408 C 408.97232 400.72284 416.16738 414.30471 440.71195 453.00455 C 463.80075 489.40904 472.47989 506.99974 472.51859 517.46353 C 472.55963 528.57395 462.15121 556.2875 453.45218 568.2272 L 450.17679 572.72134 L 445.75492 571.1608 C 438.65156 568.65458 425.81187 569.10639 420.16703 572.06119 C 410.85298 576.93664 405.62613 589.50815 410.19828 596.0358 C 414.41398 602.05456 419.20539 602.7238 460.26273 603.03189 L 482.65921 603.19986 L 488.5889 591.99087 C 491.8502 585.82576 498.46106 574.94468 503.27835 567.81119 C 513.09422 553.27576 518.60841 542.82801 524.20413 528.1647 C 528.69351 516.40053 533.33304 500.79638 533.33304 497.46353 C 533.33304 496.16464 530.84921 491.1039 527.81351 486.21744 C 520.62349 474.6439 514.84496 462.23093 512.00687 452.26626 C 508.30276 439.26096 507.7578 410.66665 511.2139 410.66665 C 511.86998 410.66665 517.72912 414.70536 524.23538 419.64126 C 556.35807 444.01083 586.16612 474.24905 598.77835 495.26236 C 610.45342 514.71425 615.57355 560.20803 606.70999 565.73111 C 605.29706 566.61154 604.15106 566.32088 601.60453 564.43814 L 598.31937 562.0104 L 589.91507 569.27212 C 585.29244 573.26608 580.21475 577.43655 578.63187 578.54165 C 574.71529 581.27607 571.35189 589.09902 572.1846 593.53775 C 572.54094 595.43719 573.94312 598.03466 575.29984 599.30923 C 577.73529 601.59722 577.9627 601.61025 593.2139 600.3483 C 606.99182 599.20825 609.57558 599.27123 617.12992 600.92447 C 621.78821 601.94391 626.71422 602.80182 628.07718 602.83072 C 630.99737 602.89256 642.40395 597.40805 646.83499 593.81119 L 649.9346 591.29361 L 652.32328 565.24673 C 654.87341 537.4368 657.09812 520.5553 659.88578 507.8483 C 661.87544 498.77873 661.41139 485.30045 658.8682 478.30337 C 657.99605 475.90384 653.55021 469.18356 648.98929 463.36978 C 622.66736 429.81727 606.07433 396.99951 597.50687 361.5397 C 594.22621 347.96138 593.42184 343.2904 587.70804 304.73697 C 585.89875 292.52892 584.12684 281.78071 583.77054 280.8522 C 583.20487 279.37808 584.14059 279.2287 591.14749 279.67837 C 606.40585 280.6576 614.56999 286.18855 635.74906 309.8854 C 642.22993 317.13674 650.58827 325.50126 654.32328 328.4733 C 672.04889 342.57798 692.01968 345.6204 714.82328 337.69009 C 734.81346 330.7382 750.62073 315.06723 757.41507 295.46744 C 761.01664 285.07793 761.55247 264.15764 758.54007 251.5104 C 751.10654 220.30152 727.8864 196.54362 701.33304 192.97915 C 696.63971 192.34914 689.20828 190.83909 684.81937 189.62369 C 674.03658 186.63767 661.4247 186.59155 654.89749 189.51236 C 647.27685 192.92245 642.20987 200.18216 645.29593 203.26822 C 645.9562 203.92849 645.19093 206.54106 643.16117 210.56509 C 639.55585 217.71267 638.9305 224.98491 641.72171 227.30142 C 643.19821 228.52681 643.73199 228.37591 645.45609 226.24673 C 646.56219 224.88076 647.46585 223.20269 647.46585 222.51822 C 647.46585 220.55247 650.71284 216.43668 651.75492 217.08072 C 652.86161 217.76469 649.48391 226.06749 646.25492 230.6022 C 642.41595 235.99353 644.90245 246.20732 650.98734 250.04556 C 653.91608 251.89297 656.59172 249.46581 656.23929 245.28189 C 655.88021 241.01893 657.53909 235.65565 661.13968 229.43814 L 663.85843 224.74478 L 665.28226 228.85806 C 668.94223 239.42962 678.27608 241.30358 676.62601 231.1354 C 675.75163 225.74724 677.94816 218.62947 682.8057 211.11392 C 686.87584 204.81657 686.90097 204.79947 692.13187 204.79947 C 698.81549 204.79947 709.53304 208.10111 715.8389 212.1022 C 729.81675 220.97121 739.54607 237.21108 743.06937 257.55533 C 746.31021 276.26861 740.58002 296.47351 729.00687 307.14126 C 715.36601 319.71497 692.83646 324.32357 678.06546 317.56119 C 670.34586 314.02703 664.56058 308.57667 650.65531 291.73306 C 634.02054 271.58321 624.06055 262.86611 611.67874 257.62173 C 605.83876 255.14817 593.05879 252.79947 585.43656 252.79947 C 578.80199 252.79947 574.94208 251.51403 574.91898 249.29556 C 574.89557 247.04994 568.92001 236.09048 565.1846 231.44205 C 557.04771 221.31628 536.98827 209.80275 517.86624 204.28189 C 484.65023 194.69183 452.49732 191.58452 368.53421 189.85415 C 309.22591 188.63189 296.45285 187.58568 293.05179 183.67251 C 291.05216 181.37181 289.82078 171.60873 290.06742 160.00064 C 290.28794 149.62117 287.76382 139.73121 282.46781 130.22525 C 279.83001 125.49052 279.37083 123.69421 279.91898 120.26626 C 280.32052 117.75515 279.90913 113.38197 278.88968 109.31705 C 277.57131 104.0602 277.44475 101.63703 278.32328 98.473295 C 279.84839 92.981021 279.75592 89.213019 277.93656 82.760404 C 277.09494 79.775511 275.87323 75.284946 275.22171 72.781889 C 274.5702 70.27883 272.68445 66.678826 271.03226 64.781889 C 269.38008 62.884951 267.25965 59.829609 266.31937 57.992826 C 264.37789 54.20026 258.71532 49.067045 256.47367 49.067045 C 255.65061 49.067045 254.05051 47.267043 252.91898 45.067045 C 250.5073 40.378082 245.79642 35.74111 242.4014 34.715483 C 241.08179 34.31683 237.55228 32.342685 234.5596 30.328764 C 230.41109 27.537022 228.00469 26.666654 224.42679 26.666654 C 221.84574 26.666654 219.73343 26.179912 219.73343 25.584623 C 219.73343 21.828955 204.90389 17.974876 199.0596 20.211576 C 196.50799 21.188122 195.18245 20.998696 191.26078 19.100248 C 187.55791 17.307716 185.33903 16.941254 181.00101 17.406889 z M 173.35648 496.42056 C 175.29934 496.40725 178.59046 498.27108 185.31937 502.6315 C 193.67027 508.04299 193.98656 508.39447 193.27445 511.46744 C 192.34285 515.48752 192.45616 529.6312 193.56742 548.26626 C 194.3325 561.09607 194.18387 563.62048 192.21195 571.40884 C 190.99467 576.2167 188.00679 584.43846 185.57132 589.68033 C 181.11763 599.26601 178.80261 601.60025 173.7471 601.60025 C 172.56281 601.60025 170.62518 602.11764 169.44242 602.75064 C 167.36393 603.86301 167.31781 603.69363 168.07913 597.68423 C 168.51236 594.26457 168.80332 590.98575 168.72562 590.39908 C 168.64793 589.81241 168.07245 584.43764 167.44632 578.45376 C 165.48567 559.71608 167.86196 504.05316 170.86624 498.33853 C 171.51057 497.11292 172.19076 496.42855 173.35648 496.42056 z "
       transform="translate(-29.409213,-17.223295)" />
    <path
       id="path2"
       style="fill:#c87137"
       d="M 232.4014 85.33267 C 231.83675 85.33267 229.11605 87.432029 226.35453 89.996733 C 219.29059 96.557185 217.88724 96.768992 211.10062 92.299467 C 207.96229 90.232634 203.69996 88.257563 201.62992 87.910795 C 199.55986 87.564028 197.01265 87.045239 195.96976 86.758451 C 192.94134 85.925652 188.39793 91.791778 181.95413 104.85025 C 170.08588 128.90151 166.88993 153.89024 172.23734 180.82486 C 174.36995 191.56671 181.65137 206.60255 188.47562 214.35415 C 193.242 219.76825 193.62182 219.99061 193.91117 217.55337 C 194.08224 216.1124 194.75111 213.87655 195.39749 212.58462 C 197.7099 207.96274 209.03689 206.51134 217.73343 209.7233 C 220.30052 210.6714 225.28925 211.51194 228.82132 211.59048 C 234.09274 211.70771 236.50987 211.11056 242.30765 208.2565 C 246.24051 206.32048 251.14368 202.81686 253.3721 200.35025 C 257.13809 196.18174 257.46069 196.03636 258.82132 197.89712 C 259.61659 198.98472 260.26663 201.06728 260.26663 202.52408 L 260.26663 205.17251 L 263.07913 202.58658 C 264.62548 201.16432 266.73215 198.07973 267.76078 195.73306 C 269.94839 190.74233 271.48861 181.33267 270.1182 181.33267 C 268.90037 181.33267 265.15496 185.44467 263.56742 188.52408 C 262.37826 190.83071 262.11443 190.6568 256.01078 183.56509 C 252.53246 179.52371 247.86757 175.32927 245.64359 174.24283 C 243.04112 172.97149 241.47819 171.41051 241.25882 169.86587 C 240.83912 166.91074 242.09059 166.85799 247.46585 169.60025 C 249.76577 170.77358 252.09221 171.73306 252.63382 171.73306 C 253.17544 171.73306 253.86801 170.77358 254.17484 169.60025 C 254.79804 167.21713 258.0174 166.87162 264.84085 168.45572 L 268.88187 169.39322 L 264.78617 164.95181 C 255.52041 154.89964 245.43095 136.71951 245.36234 129.95376 C 245.29554 123.36326 247.32658 122.27096 251.99906 126.38345 C 255.14498 129.15237 255.59505 131.17062 253.80765 134.5104 C 252.68221 136.6133 253.32822 140.79947 254.77835 140.79947 C 255.20093 140.79947 256.31408 137.93886 257.25101 134.44205 L 258.95413 128.08462 L 256.3721 126.39126 C 250.2799 122.3995 239.78147 104.77044 235.25882 90.934233 C 234.25206 87.854239 232.96605 85.33267 232.4014 85.33267 z M 210.61429 122.96158 C 216.16631 122.91778 216.53421 124.78031 216.53421 130.79751 C 216.53421 134.6822 216.10322 136.52899 215.20023 136.52017 C 214.4669 136.51317 210.26624 134.92161 205.86624 132.98306 C 201.46626 131.0445 195.9946 128.48214 193.70609 127.2897 L 189.54398 125.12173 L 201.42679 123.75259 C 205.47617 123.28617 208.44176 122.97869 210.61429 122.96158 z M 301.12015 192.85025 C 300.27859 192.90017 299.96948 193.12243 300.13968 193.52017 C 316.44199 231.6177 319.1463 266.24586 308.35257 298.66665 C 300.78489 321.39746 303.02592 350.03967 313.14163 359.86392 C 321.22142 367.7109 331.14892 367.801 367.34867 360.36197 C 392.02332 355.29133 395.35245 354.85055 409.60062 354.76236 C 431.18187 354.62878 441.29838 357.48835 458.13382 368.47525 C 462.82715 371.53815 470.98664 376.83712 476.26663 380.25259 C 481.54663 383.66807 488.50676 388.47811 491.73343 390.94009 C 494.96009 393.40207 501.44049 397.72625 506.13382 400.54947 C 543.88421 423.25777 596.10309 473.91357 606.86038 498.2604 C 612.98598 512.12436 618.38778 540.38684 617.12015 551.94205 C 616.73043 555.49458 615.91439 560.09904 615.3057 562.17447 C 614.25108 565.7704 614.40337 566.153 618.56546 570.31509 C 621.13704 572.88666 622.93265 575.68817 622.93265 577.12759 L 622.93265 579.5729 L 620.53421 577.37759 C 616.64328 573.81983 611.60978 571.73306 606.91703 571.73306 C 604.50266 571.73306 601.54037 571.20628 600.33499 570.56119 C 598.41949 569.53604 597.38202 570.13952 592.10648 575.36001 C 588.78674 578.64511 585.46214 581.33462 584.71781 581.33462 C 581.8892 581.33462 578.13382 586.86232 578.13382 591.02603 C 578.13382 595.70747 578.69449 596.27107 582.61234 595.52212 C 584.75368 595.11278 585.66073 594.14816 586.19632 591.70962 C 586.90308 588.49179 594.94479 578.91506 598.56937 576.97525 C 600.00291 576.20804 599.69587 577.37454 597.22953 582.06314 C 595.45909 585.4288 594.17285 589.36206 594.34867 590.87173 C 594.63763 593.35296 595.16117 593.62942 600.13773 593.91861 C 605.12061 594.20817 605.66616 594.01268 606.24124 591.72134 C 606.91831 589.02367 613.21381 579.79351 613.90531 580.48501 C 614.13392 580.71362 613.61209 583.25676 612.74515 586.13736 C 611.87822 589.01796 611.33052 591.86028 611.52835 592.45376 C 611.85556 593.4354 623.21871 596.85029 627.29593 597.19205 C 628.22889 597.27024 631.90215 595.8791 635.45804 594.1022 C 639.01394 592.3253 642.5147 590.16042 643.23734 589.2897 C 644.01591 588.35159 645.36002 578.6937 646.53617 565.58658 C 648.91234 539.10636 651.03391 522.76788 654.03421 507.86978 C 657.71374 489.59898 655.94985 481.44077 645.42679 468.07876 C 628.26493 446.28693 612.75746 420.85113 604.22171 400.49283 C 594.26263 376.73981 590.10085 359.74517 583.98538 317.86392 C 581.88685 303.49226 579.47095 288.37292 578.6182 284.26626 C 576.68585 274.96054 576.67751 275.19986 578.98734 275.19986 C 580.04334 275.19986 581.44797 274.6572 582.11038 273.99478 C 582.89368 273.21148 586.43539 272.95577 592.23929 273.2604 C 608.55913 274.11697 618.80592 281.16131 641.73734 307.29556 C 661.22099 329.50051 677.96103 337.71927 697.94242 334.8854 C 724.25063 331.15423 743.07163 316.41124 750.99124 293.33267 C 754.32459 283.61896 755.0332 266.60548 752.57328 255.31314 C 750.93872 247.80971 745.44014 232.72864 742.04788 226.44205 C 739.43297 221.59602 731.06021 212.37038 727.09085 209.96158 C 724.83043 208.58984 721.47029 206.21908 719.62406 204.694 C 716.78001 202.34469 712.97586 200.72436 709.60453 200.42447 C 709.16189 200.38507 708.32009 199.99803 707.73343 199.56509 C 707.14676 199.13215 705.03917 198.68065 703.04984 198.56119 C 701.06051 198.44174 697.48557 197.90627 695.10648 197.37173 C 690.23 196.27605 688.40256 196.84704 690.12992 198.92837 C 690.77166 199.70163 694.27501 200.66208 697.91507 201.06119 C 708.04198 202.17152 714.73726 204.45185 719.88382 208.54361 C 722.45972 210.59157 725.10024 212.26597 725.75101 212.26626 C 727.12434 212.26687 734.1094 220.23059 738.89945 227.25455 C 749.60478 242.95248 753.57361 268.59268 748.15335 287.04751 C 740.82039 312.0147 717.12349 328.58213 690.66703 327.23892 C 674.51395 326.41882 666.77495 320.82955 644.07718 293.59048 C 630.49052 277.28545 623.20413 270.80184 612.60648 265.58462 C 604.81258 261.74771 590.40858 258.7412 583.53226 259.51626 C 580.89319 259.81372 577.23158 259.81212 575.39359 259.51431 C 572.40256 259.02893 571.85439 258.34149 570.1807 252.95376 C 567.22702 243.44566 563.2957 237.13439 556.17288 230.47134 C 545.25595 220.25908 531.74907 213.74786 509.56156 208.00064 C 477.77896 199.76801 448.77293 197.32538 356.79984 195.14322 C 331.5732 194.54469 308.39363 193.67663 305.29007 193.21353 C 303.33433 192.9217 301.96171 192.80033 301.12015 192.85025 z M 417.42288 360.53384 C 413.55138 360.53284 412.57828 361.04892 409.8682 364.53384 C 405.4537 370.21049 405.0259 371.13233 406.13187 372.58072 C 406.6722 373.28835 408.44298 377.70575 410.06546 382.39908 C 416.03983 399.68111 424.77511 415.85086 447.06351 450.87173 C 471.56139 489.36424 478.88856 504.68029 478.91898 517.46353 C 478.93868 525.75076 474.58822 542.11209 469.44632 553.08462 C 464.89699 562.79264 457.04197 575.31042 453.47367 578.5397 C 451.41077 580.40659 451.13849 580.39615 445.36234 578.23501 C 433.61924 573.84136 422.33239 575.90665 417.35453 583.35806 C 412.0284 591.33077 415.744 595.66971 427.70609 595.4479 C 431.68281 595.3742 436.19337 595.64861 437.72953 596.05728 C 439.26568 596.46594 449.07677 596.91906 459.53226 597.06509 L 478.54203 597.33072 L 481.67093 590.70962 C 483.39183 587.06818 489.56724 576.87013 495.39359 568.04556 C 510.36983 545.36254 518.27966 528.47142 524.70413 505.45376 L 526.97757 497.30728 L 521.43656 488.38736 C 514.39999 477.06075 508.55265 464.61457 505.46976 454.39908 C 503.35244 447.3831 503.04169 443.90862 502.94046 426.15103 L 502.82523 405.90298 L 493.81351 399.1647 C 479.16377 388.21108 451.71456 370.3933 443.98148 366.81705 C 436.338 363.28223 424.7325 360.53591 417.42288 360.53384 z M 264.53421 425.09439 C 264.53421 424.78757 262.19715 426.21563 259.34281 428.26626 C 256.48845 430.31691 249.16949 434.3766 243.07718 437.28775 C 229.04686 443.99199 223.19805 449.61941 219.23343 460.22915 C 217.70667 464.31493 214.23526 471.73137 211.52054 476.71158 C 207.24692 484.55165 206.5172 486.81088 206.08499 493.54556 C 205.27614 506.14936 209.57676 516.40827 217.89945 521.73501 L 221.33304 523.93423 L 216.1182 523.29947 C 213.25036 522.95119 208.26602 521.23901 205.04203 519.49283 C 201.81802 517.74663 198.69969 516.61494 198.11038 516.97915 C 197.00486 517.66241 197.42194 526.40135 199.42874 544.53384 C 201.18615 560.41284 198.57654 574.76976 190.82132 591.8815 C 189.12278 595.6293 187.73343 598.83395 187.73343 599.00455 C 187.73343 599.17513 190.49291 599.88354 193.86624 600.57876 C 200.65394 601.97765 204.77471 603.7992 206.87406 606.32876 C 208.60774 608.41771 207.36886 608.43426 201.60062 606.39908 C 196.23474 604.50589 184.44428 604.39834 179.25296 606.194 C 174.38289 607.87855 171.50817 612.92031 171.35257 620.05337 C 171.1276 630.36718 171.86561 631.26596 182.93265 634.1354 C 184.88615 634.6419 190.35657 633.38506 193.95218 631.60415 C 196.66262 630.26167 197.94863 628.5837 199.38187 624.52212 C 202.17176 616.61603 204.66387 612.26626 206.4014 612.26626 C 207.62041 612.26626 207.72739 612.84549 206.90726 615.00259 C 206.33512 616.50745 205.86624 620.82707 205.86624 624.6022 L 205.86624 631.46744 L 209.1807 631.46744 C 212.11872 631.46744 219.12923 630.08576 231.71585 627.02798 C 237.68537 625.57776 238.32466 623.50304 237.23343 609.12173 C 235.62615 587.93953 236.17257 581.17136 240.96976 562.90689 C 247.50027 538.04305 248.57744 532.08464 249.62601 514.97525 C 250.69128 497.59352 251.61194 491.62102 259.26273 452.55923 C 262.16129 437.76038 264.53421 425.40121 264.53421 425.09439 z M 119.29788 448.2272 L 119.90531 453.18033 C 122.88155 477.42889 127.62311 534.07398 128.57913 556.79947 C 129.30674 574.09535 127.86862 594.38844 125.73148 596.96353 C 124.97694 597.87269 122.21208 598.39908 118.20023 598.39908 C 114.11032 598.39908 110.0016 599.20055 106.61624 600.65689 C 102.15841 602.5746 100.95344 603.76409 98.604525 608.56509 C 95.424929 615.06396 95.450075 619.8906 98.667025 620.75845 C 99.840358 621.07498 102.13023 622.235 103.75492 623.33658 C 105.91233 624.79935 107.76314 625.16739 110.62015 624.70376 C 112.7717 624.35461 115.07936 624.52491 115.74906 625.08072 C 118.95723 627.74326 133.21348 628.96655 144.79984 627.57486 C 150.39552 626.90274 150.40024 626.89988 150.40726 623.05142 C 150.41526 618.68962 153.09608 614.04974 157.8721 610.13345 C 160.18997 608.23283 161.22356 606.36272 161.46781 603.62564 C 161.6563 601.51349 162.08807 599.33505 162.42874 598.78384 C 162.76941 598.23262 162.58624 594.44137 162.02054 590.35806 C 161.45483 586.27476 161.01699 579.33423 161.04788 574.93423 C 161.07878 570.53424 160.6414 564.17279 160.07523 560.79947 C 159.42417 556.92042 159.41484 552.4129 160.04984 548.53384 C 160.60201 545.16052 161.5702 535.92063 162.20218 528.00064 C 162.83415 520.08065 164.03771 510.00024 164.87601 505.60025 C 167.61259 491.23684 167.74564 491.62326 155.99906 480.04361 C 150.27906 474.40489 141.99007 467.08796 137.57718 463.78384 C 133.1643 460.47973 127.24508 455.62893 124.42484 453.00259 L 119.29788 448.2272 z M 169.56156 609.2272 L 166.64749 610.1022 C 160.96923 611.80834 160.13207 612.4852 157.94437 617.13931 C 155.47875 622.3847 155.02618 628.87034 157.06742 629.694 C 157.80075 629.9899 159.65275 630.26877 161.1846 630.31509 C 163.81629 630.39469 164.0021 630.05837 164.53421 624.19009 C 164.84395 620.7743 166.10123 616.0091 167.32913 613.6022 L 169.56156 609.2272 z "
       transform="translate(-29.409213,-17.223295)" />
    <path
       id="path3"
       style="fill:#784421"
       d="M 179.18656 22.399076 L 182.32913 26.73892 C 184.05753 29.124906 186.9886 35.630277 188.84281 41.195951 C 191.45828 49.046677 192.60862 51.236388 193.97367 50.961576 C 195.44272 50.665827 195.71763 49.198427 195.63382 42.080717 C 195.47693 28.75662 191.21655 22.399076 182.44632 22.399076 L 179.18656 22.399076 z M 168.77054 24.594389 C 167.24705 24.560079 165.53387 24.947034 163.37992 25.697904 L 160.04007 26.861967 L 165.72757 32.057279 C 168.85508 34.915646 173.50478 39.96449 176.0596 43.276029 C 180.09103 48.501505 184.21464 51.724077 185.44437 50.610014 C 185.65161 50.422271 184.49725 46.278232 182.87992 41.401029 C 180.71913 34.88504 178.88451 31.47306 175.96195 28.533842 C 173.32106 25.877916 171.30969 24.651572 168.77054 24.594389 z M 203.5889 25.541654 C 201.473 25.510063 199.72502 25.698505 199.25101 26.172514 C 198.93636 26.487164 199.31504 28.527036 200.09281 30.705717 C 200.8706 32.884397 201.52799 38.145748 201.55374 42.399076 C 201.61024 51.723141 203.3916 52.687183 206.16117 44.889311 C 207.18562 42.004904 209.66457 37.207684 211.66898 34.229154 L 215.31351 28.813139 L 213.01859 27.20767 C 211.6602 26.256215 207.11539 25.594306 203.5889 25.541654 z M 149.01859 29.865873 C 145.90733 29.865873 137.56759 32.887343 137.65335 33.983061 C 137.68275 34.35936 140.44229 35.961698 143.78617 37.543608 C 147.13005 39.125518 153.946 43.722962 158.93265 47.760404 L 167.99906 55.100248 L 171.20023 52.961576 C 172.96023 51.785538 174.52242 50.745083 174.67288 50.649076 C 174.82334 50.553066 171.86145 46.859203 168.09085 42.440092 C 161.0401 34.176655 154.5029 29.865873 149.01859 29.865873 z M 224.88187 32.006498 C 222.53093 32.038028 220.21566 33.030815 218.39945 34.934233 C 215.4368 38.03912 210.16115 48.466684 210.14359 51.252592 C 210.13459 52.726913 212.29528 55.812619 212.89554 55.182279 C 213.02589 55.045391 215.35057 51.914703 218.06156 48.225248 C 220.77254 44.535793 225.16138 40.14084 227.81546 38.45767 L 232.64163 35.397123 L 230.21585 33.697904 C 228.56012 32.538181 226.71038 31.981975 224.88187 32.006498 z M 129.95609 39.404936 C 126.62872 39.391272 123.77978 40.407751 121.46585 42.475248 L 118.09671 45.485014 L 125.35257 47.276029 C 129.3429 48.26074 137.4314 51.615793 143.32718 54.733061 C 153.44989 60.085223 154.29572 60.344087 158.51078 59.379545 L 162.97367 58.358061 L 158.25882 54.277983 C 146.91109 44.456589 137.2763 39.434997 129.95609 39.404936 z M 238.77249 39.793608 C 238.1218 39.785521 237.45148 39.857606 236.76468 40.008451 C 232.72081 40.896634 224.0539 48.732858 219.82132 55.328764 C 217.0246 59.687075 216.65386 60.978812 217.53617 63.299467 L 218.5889 66.068998 L 223.93265 60.865873 C 226.87092 58.003919 232.24412 54.17782 235.87406 52.36392 C 239.50399 50.550021 243.32905 49.067045 244.37406 49.067045 C 247.22367 49.067045 247.85422 47.150425 245.95804 44.256498 C 244.05059 41.345355 241.59216 39.82865 238.77249 39.793608 z M 114.77054 51.434233 C 108.52177 51.377446 103.59635 53.465641 99.756869 57.715483 C 96.20856 61.643037 91.550551 70.465114 93.067416 70.385404 C 93.214083 70.377704 97.892523 69.424182 103.46585 68.266264 C 111.0865 66.682993 117.85329 66.157662 130.75492 66.147123 C 140.19046 66.139423 148.24203 65.80259 148.64554 65.399076 C 149.70969 64.334933 140.67091 58.977558 131.86429 55.451811 C 125.29152 52.820389 119.6307 51.4784 114.77054 51.434233 z M 250.06546 54.399076 C 244.03206 54.399076 241.01771 55.385035 234.15726 59.596342 C 230.34532 61.936309 230.12684 62.289556 232.02249 63.063139 C 234.55974 64.098546 236.57503 63.742869 244.26663 60.902983 C 247.49329 59.711637 252.53252 58.705324 255.46585 58.666654 L 260.79984 58.596342 L 258.28226 56.498686 C 256.46976 54.988718 254.16694 54.399076 250.06546 54.399076 z M 200.60648 55.838529 C 199.78179 55.826895 198.99727 55.936899 198.22953 56.168608 L 195.25687 57.067045 L 201.36234 64.703764 C 204.72021 68.903916 209.1469 75.245006 211.20023 78.795561 C 213.25356 82.346114 215.09119 84.795382 215.28421 84.23892 C 215.47724 83.682458 215.09847 79.768062 214.44242 75.539701 C 212.70104 64.316239 210.03569 58.963591 205.17874 56.934233 C 203.46758 56.219262 201.98095 55.85792 200.60648 55.838529 z M 179.67679 55.967436 C 177.46444 55.949954 175.48298 56.610313 174.14749 57.98892 C 172.34418 59.850464 172.44272 60.068514 176.53421 63.276029 C 178.88088 65.115687 183.92011 69.750821 187.73343 73.576811 C 193.05789 78.918935 195.7797 80.81425 199.46585 81.740873 C 207.20869 83.687258 207.31126 83.629755 204.61624 78.834623 C 201.18882 72.73634 193.29975 63.204991 188.4639 59.318998 C 185.74602 57.134956 182.52124 55.989912 179.67679 55.967436 z M 255.81742 64.277983 C 252.36452 64.30715 248.48845 65.102054 244.47562 66.70767 C 236.70074 69.81856 238.69799 71.203307 250.93265 71.186186 C 256.94598 71.177786 263.06755 71.688439 264.53421 72.318998 C 269.30888 74.371758 270.09884 73.941276 268.22367 70.315092 C 266.15148 66.307919 261.57224 64.229371 255.81742 64.277983 z M 161.99515 65.127592 C 159.17317 65.08459 156.53048 65.561787 155.13968 66.578764 C 154.00181 67.410796 153.31016 68.297038 153.60257 68.547514 C 153.89498 68.79799 157.01422 70.951398 160.53421 73.33267 C 164.05421 75.713942 169.81304 79.855214 173.33304 82.535795 C 176.85304 85.216376 180.21317 87.407844 180.79984 87.404936 C 181.38651 87.402036 183.21766 86.210436 184.8682 84.758451 L 187.8682 82.119779 L 185.6514 79.004545 C 183.28062 75.675086 175.51503 69.654449 169.91898 66.805326 C 167.81697 65.735126 164.81713 65.170593 161.99515 65.127592 z M 230.85843 68.266264 C 226.97338 68.266264 221.89195 76.93373 221.8721 83.596342 C 221.8661 85.479094 222.00368 85.493371 224.26663 83.828764 C 225.58663 82.857787 228.7069 81.096065 231.20023 79.914701 C 233.69356 78.733338 235.73343 77.046381 235.73343 76.164701 C 235.73343 73.412907 232.55746 68.266264 230.85843 68.266264 z M 125.59671 71.467436 C 115.87886 71.467436 101.33684 73.89726 93.491244 76.83267 C 83.55366 80.550797 74.667025 90.066559 74.667025 96.98892 C 74.667025 98.924661 75.349611 98.746578 82.399447 94.983061 C 86.652777 92.712444 94.213567 89.561877 99.200229 87.981108 C 106.44921 85.683181 110.54208 85.076326 119.61624 84.953764 L 130.96585 84.799467 L 131.54788 80.533842 C 131.86823 78.187178 132.4573 75.185872 132.85648 73.865873 C 133.56405 71.526091 133.38106 71.467436 125.59671 71.467436 z M 143.22367 71.789701 C 138.95496 71.925815 137.19929 76.041493 137.12796 84.799467 C 137.06996 91.916631 138.36263 96.939812 141.54984 101.9733 C 142.95574 104.19358 143.05066 104.1704 152.81742 99.285795 C 158.2346 96.576526 164.82586 93.686201 167.46585 92.861967 C 170.10585 92.037733 172.66444 91.0243 173.14945 90.611967 C 174.27092 89.658552 158.06096 77.68153 150.67874 74.008451 C 147.62187 72.487479 145.16399 71.727831 143.22367 71.789701 z M 250.8096 76.799467 C 244.11753 76.799467 242.13382 77.139355 242.13382 78.281889 C 242.13382 79.124512 243.71085 80.059425 245.79203 80.449858 C 251.54657 81.529415 263.58443 88.013893 268.26663 92.557279 L 272.53421 96.697904 L 273.1182 93.947904 C 273.44009 92.436046 273.36002 89.592914 272.94046 87.629545 C 271.2793 79.855967 265.03363 76.799467 250.8096 76.799467 z M 241.65921 85.561186 C 238.12024 85.439011 239.9489 88.556767 248.53421 93.742826 C 252.9819 96.429499 260.32322 102.38553 265.06742 107.15494 C 272.32071 114.44676 273.64937 115.3898 273.92679 113.4479 C 274.1063 112.19139 273.22405 108.97422 271.96585 106.29751 C 268.9841 99.95411 261.75679 93.384592 253.52445 89.533842 C 247.83769 86.873815 243.7826 85.634491 241.65921 85.561186 z M 122.97757 89.861967 C 121.43012 89.890033 119.61623 90.009254 117.47367 90.193998 C 102.26014 91.505792 88.434942 96.737858 74.999057 106.26626 C 63.871714 114.15751 55.500408 126.84002 55.477572 135.84048 L 55.465854 139.9479 L 61.600619 134.3229 C 64.97395 131.22978 71.782828 126.05448 76.731479 122.82095 C 92.011298 112.83687 111.19793 105.8397 131.29788 102.92251 L 135.12796 102.36783 L 133.2471 96.811186 C 131.39448 91.338668 129.68318 89.740348 122.97757 89.861967 z M 180.32523 94.877592 L 177.36234 95.586576 C 172.0906 96.847047 161.7833 100.9446 154.13382 104.82095 C 123.38487 120.40292 102.12076 147.14221 93.668979 180.8522 C 91.628402 188.99105 91.268957 193.31345 91.237338 210.13345 C 91.213728 222.6934 91.764109 233.16345 92.75101 238.93423 L 94.301791 248.00064 L 95.135775 241.60025 C 95.595086 238.08025 97.189569 230.88024 98.678744 225.60025 C 102.51596 211.99509 113.42328 190.40439 123.73538 175.99869 C 132.72233 163.4442 135.9236 159.50208 153.63578 139.19986 C 166.76837 124.14689 168.74191 121.35877 171.74515 113.60025 C 173.10771 110.08025 175.5961 104.42826 177.27445 101.0397 L 180.32523 94.877592 z M 244.81156 98.39517 C 244.73695 98.40656 244.67795 98.433074 244.63578 98.475248 C 243.31458 99.796453 251.67239 113.03888 257.85843 119.42642 C 261.52996 123.21754 264.53421 126.46173 264.53421 126.6354 C 264.53421 126.80908 267.29369 130.23782 270.66703 134.2565 C 274.04035 138.27518 278.48089 144.46278 280.53421 148.00455 C 282.58755 151.54632 284.40278 154.31682 284.56937 154.16275 C 284.73597 154.00868 284.35768 151.59071 283.72953 148.78775 C 280.89532 136.14092 268.29854 116.17738 257.45413 107.14908 C 250.64837 101.48308 245.93064 98.224326 244.81156 98.39517 z M 131.66898 108.92447 C 126.16992 108.84531 112.30298 112.25032 101.84867 116.33072 C 86.602551 122.28141 74.696929 129.93223 63.903354 140.71353 C 53.578495 151.02666 48.656257 159.55394 46.924838 170.13345 C 46.052873 175.46144 46.450199 186.66665 47.510776 186.66665 C 47.677031 186.66665 50.120173 183.42743 52.940463 179.46744 C 64.068012 163.84313 82.218781 147.05472 102.39945 133.7233 C 119.61361 122.35156 120.8427 121.47465 128.3389 115.19986 C 134.80427 109.78792 135.1376 109.30599 132.65335 108.98697 C 132.36463 108.94989 132.03558 108.92974 131.66898 108.92447 z M 263.48343 134.21744 L 262.36234 137.16861 C 258.46145 147.42873 260.0389 152.24089 270.57523 162.20572 C 273.92134 165.37032 276.71667 168.68747 276.78617 169.57876 C 276.85567 170.47006 278.17234 173.36064 279.71195 176.00064 C 281.25156 178.64064 283.10348 182.11973 283.82718 183.73306 C 284.55088 185.3464 285.37426 186.66665 285.65726 186.66665 C 285.94026 186.66665 285.90973 182.94574 285.59085 178.39908 C 284.65149 165.00323 279.0365 152.82628 267.34867 138.84244 L 263.48343 134.21744 z M 165.17679 134.43228 L 153.78812 147.49869 C 139.3621 164.04989 133.12588 171.98229 125.08695 184.00064 C 99.924905 221.61835 94.013345 256.00029 106.96976 289.3815 L 110.36624 298.13345 L 111.11429 288.53384 C 111.52496 283.25385 112.41969 275.81396 113.10453 272.00064 C 117.03037 250.14059 132.45475 214.98609 153.35257 180.26626 L 163.94632 162.66665 L 164.56156 148.54947 L 165.17679 134.43228 z M 107.18265 137.06705 L 103.99124 139.11197 C 88.208024 149.22674 67.302495 168.77734 57.706088 182.39908 C 42.974413 203.31014 36.529243 222.0937 35.522494 247.05337 C 34.646933 268.76058 37.868521 286.18015 47.208041 310.24478 L 50.667026 319.15689 L 50.911166 313.44595 C 51.046058 310.30449 51.686748 302.45396 52.334994 296.00064 C 55.333235 266.15299 67.233867 227.21116 81.049838 202.03775 C 84.040426 196.58874 85.869826 191.30641 87.452182 183.54165 C 90.562625 168.27845 96.665787 153.19277 104.7471 140.79947 L 107.18265 137.06705 z M 165.03421 171.54556 L 155.03031 188.44009 C 118.07043 250.85973 108.30727 292.96349 123.76859 323.27017 C 126.2191 328.07355 130.17403 333.86587 131.00296 333.86587 C 131.26095 333.86587 131.17213 331.98215 130.80374 329.67837 C 129.78192 323.2882 131.94765 305.91287 135.42484 292.61587 C 139.22401 278.08754 144.31906 264.82247 157.88382 234.13345 C 163.58866 221.2268 169.0671 208.17422 170.0596 205.12759 C 171.83174 199.68773 171.816 199.43626 169.18265 191.10025 C 167.70783 186.43161 166.17032 180.1219 165.76663 177.07876 L 165.03421 171.54556 z M 276.90726 181.96353 L 275.61038 188.99478 C 274.8966 192.86222 273.55304 197.49313 272.62601 199.2858 C 271.45525 201.54978 271.2974 202.76622 272.10648 203.26626 C 274.30508 204.62507 280.29891 218.6516 281.70609 225.73111 C 282.99925 232.23696 283.18949 232.56454 284.03812 229.74087 C 284.54624 228.0502 285.00252 221.8673 285.05179 216.00064 C 285.14819 204.52054 284.18603 199.5905 279.75101 188.8483 L 276.90726 181.96353 z M 291.86038 191.46158 C 291.58332 191.54206 291.38397 192.11702 291.10453 193.06705 C 290.67312 194.5337 290.57033 201.73371 290.87601 209.06705 C 291.29438 219.1038 291.01514 224.16584 289.74515 229.54165 L 288.05765 236.68228 L 291.61429 243.94205 C 297.43211 255.81628 303.74261 278.11376 304.08304 288.00064 L 304.20999 291.73306 L 305.63187 287.2233 C 306.41297 284.74257 307.61862 278.0223 308.31156 272.2897 C 311.13087 248.96559 305.35579 216.66452 294.62406 195.73306 C 293.00044 192.56632 292.32216 191.32744 291.86038 191.46158 z M 665.3721 194.03384 C 660.05239 194.04766 655.28022 194.46989 654.29007 195.29165 C 652.32873 196.91942 653.34903 198.33511 655.98734 197.64517 C 657.34614 197.28984 658.34968 197.72573 658.78421 198.85806 C 659.26024 200.09859 657.35975 202.80204 652.39749 207.94205 C 645.89343 214.67909 644.01336 217.60025 646.18265 217.60025 C 646.65025 217.60025 648.92601 215.66262 651.23929 213.29361 C 655.5644 208.8643 658.62621 208.18011 660.52835 211.21744 C 661.26734 212.39744 660.50482 214.40621 657.70413 218.65884 C 655.59392 221.86304 653.86624 224.85585 653.86624 225.30923 C 653.86624 225.76261 652.90676 227.09292 651.73343 228.26626 C 650.56009 229.43959 649.53918 231.60038 649.46585 233.06705 C 649.39255 234.5337 649.24131 236.81345 649.12992 238.13345 C 648.5742 244.71904 652.10173 242.87791 652.8682 236.18228 C 653.68683 229.03101 656.00372 224.14112 661.12601 218.7565 C 666.63873 212.96141 669.43372 213.12825 669.10453 219.23501 C 668.97908 221.5621 669.11747 224.58038 669.41117 225.94205 C 670.40028 230.52705 672.16852 227.72831 672.64945 220.81705 C 673.15298 213.5809 676.40728 206.9794 682.11234 201.61978 C 685.96103 198.00413 685.47349 196.69128 679.73343 195.22525 C 676.55831 194.41431 670.69182 194.02002 665.3721 194.03384 z M 175.65531 206.8815 L 172.77835 214.10806 C 171.19671 218.08248 165.81152 230.48157 160.8096 241.66275 C 149.78856 266.29891 143.76 282.4438 139.96585 297.48111 C 137.53951 307.0974 137.11122 311.04674 137.12015 323.73306 C 137.13135 339.64416 138.37546 344.96063 144.23538 354.13345 L 146.62015 357.86587 L 147.32718 346.07876 C 147.89531 336.62147 148.80039 332.01006 151.9014 322.74283 C 155.59601 311.70167 162.49547 297.02692 176.00882 271.46744 C 179.42072 265.0141 183.51315 256.02532 185.10257 251.49283 C 187.80607 243.78333 187.94189 242.53269 187.23148 232.11001 L 186.47367 220.96939 L 181.06351 213.92447 L 175.65531 206.8815 z M 268.12015 207.10611 C 267.57168 207.20744 265.76128 208.20742 263.75101 209.53775 C 260.18495 211.89766 259.64167 212.75693 260.03031 215.40494 C 260.53137 218.81884 258.50197 226.13345 257.05374 226.13345 C 256.55062 226.13345 257.97388 230.09424 260.21781 234.93423 C 266.43045 248.33449 268.17121 256.45647 268.21976 272.26626 C 268.24276 279.74626 268.37292 285.86587 268.50882 285.86587 C 268.64472 285.86587 269.71832 283.98209 270.89359 281.67837 C 272.06886 279.37467 274.10402 273.73479 275.41703 269.14517 C 278.53035 258.26255 278.80548 235.71833 275.95218 225.194 C 274.44994 219.65299 269.75579 208.60384 268.27445 207.11978 C 268.25066 207.09595 268.1985 207.09163 268.12015 207.10611 z M 83.854525 209.97915 C 81.666658 210.74853 70.412189 239.07246 65.493197 256.92056 C 51.227988 308.68055 54.397196 349.51017 74.965854 378.9479 C 77.328104 382.32875 79.418133 384.93899 79.608432 384.74869 C 79.79873 384.55839 79.487529 381.55092 78.917025 378.06705 C 75.557711 357.55282 79.949675 327.05278 91.641635 289.71158 L 95.948275 275.95572 L 93.323275 266.77798 C 88.39856 249.55965 84.662416 226.51721 84.225619 210.66665 C 84.2104 210.11437 84.080857 209.89956 83.854525 209.97915 z M 191.94632 225.60025 L 192.6182 229.86587 C 193.64212 236.36973 198.06494 245.40384 202.45609 249.95767 C 211.29193 259.12087 221.9656 261.61464 236.56156 257.92642 C 243.25536 256.23498 246.39945 252.01944 246.39945 244.73892 C 246.39945 239.01238 243.8543 230.58209 241.67288 229.08267 C 240.02659 227.95107 234.20067 228.09055 230.91312 229.34048 C 229.35888 229.9314 226.7231 231.78051 225.0557 233.4479 C 221.28095 237.22265 213.84593 239.38585 207.20023 238.64517 C 203.10579 238.18883 201.62092 237.42271 199.46585 234.64908 C 197.99919 232.76144 195.70707 229.95358 194.3721 228.40884 L 191.94632 225.60025 z M 248.81156 227.20572 C 248.49509 227.19743 248.5173 227.89105 248.9971 229.43228 C 252.39138 240.33545 252.86596 243.02121 252.18851 247.46744 C 251.78627 250.10743 251.5602 258.09992 251.68656 265.22915 C 252.03779 285.04631 246.69281 306.82011 235.62406 330.66665 L 230.42679 341.86587 L 236.25687 335.70767 C 239.46426 332.32003 244.05586 326.65221 246.45999 323.11197 C 257.51743 306.82916 262.51879 290.89714 262.50492 272.00064 C 262.49432 257.53506 260.22177 247.29415 254.50101 235.93423 C 251.83666 230.64355 249.50779 227.22395 248.81156 227.20572 z M 285.05179 244.20767 C 284.95191 244.20093 284.86977 244.2563 284.8057 244.37759 C 284.3732 245.1963 283.72325 250.25245 283.36234 255.61392 C 282.97189 261.41404 281.59734 268.87353 279.96781 274.03189 C 278.46152 278.80014 277.4418 283.05476 277.70218 283.48501 C 278.80167 285.30185 282.75628 306.84337 283.75101 316.43619 C 285.60163 334.28299 282.39579 354.51769 274.72757 373.38931 C 273.29982 376.90303 272.56247 379.51154 273.0889 379.18619 C 273.61534 378.86083 276.7055 374.59885 279.95609 369.71353 C 298.89849 341.24486 304.17189 306.65306 295.04398 270.75845 C 291.87604 258.30083 286.54996 244.3088 285.05179 244.20767 z M 193.03226 247.46744 C 192.67922 247.46744 191.58305 249.98705 190.59671 253.06705 C 189.61037 256.14704 184.9471 266.10654 180.23343 275.19986 C 161.98124 310.41088 157.08623 321.77566 154.04984 336.00064 C 151.3605 348.59971 152.68536 361.04287 157.7764 371.02212 C 159.40451 374.2135 169.06265 386.13345 170.02054 386.13345 C 170.1433 386.13345 169.77376 383.28701 169.19828 379.80728 C 166.84505 365.5783 172.56534 345.05045 190.6182 302.95572 C 202.81073 274.52582 205.86624 266.5083 205.86624 262.944 C 205.86624 261.52391 204.2339 259.30995 201.65921 257.24087 C 199.34461 255.38079 196.6001 252.42086 195.56156 250.66275 C 194.52302 248.90463 193.3853 247.46744 193.03226 247.46744 z M 245.76078 260.38931 C 245.22694 260.61523 242.51149 261.70482 239.72757 262.81119 C 234.83863 264.75412 234.66699 264.97291 234.65921 269.21158 C 234.62971 285.25402 228.87355 301.84765 211.50296 335.96353 C 195.95666 366.49652 191.64577 376.34994 190.09085 384.90494 C 188.85056 391.72884 189.28251 391.44387 199.36429 378.77994 C 226.44562 344.76251 244.47348 303.62094 246.10257 272.12173 C 246.47219 264.97496 246.33196 260.14758 245.76078 260.38931 z M 213.24124 263.8229 C 211.91205 263.67008 211.42147 264.66365 210.50492 268.52212 C 209.83005 271.36315 204.62949 284.46735 198.94828 297.64322 C 185.81678 328.09778 180.89133 341.03754 177.58109 353.77798 C 173.25127 370.44253 174.17606 385.32656 179.93851 391.694 C 182.55936 394.59001 183.1125 394.07729 183.82132 388.09244 C 185.00905 378.06387 189.83495 366.31846 205.74515 334.7272 C 223.72407 299.02833 227.22213 289.74097 228.00296 275.63345 L 228.54007 265.93228 L 222.27054 265.24087 C 218.82205 264.86055 215.04022 264.28177 213.86624 263.95376 C 213.63847 263.89012 213.43113 263.84474 213.24124 263.8229 z M 99.149447 286.50259 C 98.679461 286.48903 98.151311 287.98675 96.948275 291.73306 C 93.270504 303.18585 87.601259 325.63348 85.768588 336.00064 C 83.223881 350.39569 83.184249 373.57517 85.684604 384.53384 C 88.52318 396.97487 95.579849 410.89497 103.12406 418.93423 C 106.56493 422.6009 109.66442 425.60025 110.01273 425.60025 C 110.36104 425.60025 109.70435 422.35907 108.55179 418.39908 C 107.02154 413.1414 106.30393 406.59444 105.89554 394.12759 C 105.25471 374.56484 106.5904 363.52304 112.69632 337.87759 C 116.97814 319.89359 116.93856 319.50361 109.66312 307.52798 C 105.82497 301.21027 103.19997 295.8696 100.06546 288.00064 C 99.692387 287.06406 99.431439 286.51073 99.149447 286.50259 z M 273.05765 290.3815 C 270.75487 291.38538 264.31739 300.20304 262.47562 304.87564 C 261.26857 307.93795 259.07408 312.82536 257.59867 315.73697 L 254.91507 321.02994 L 257.15531 328.78189 C 261.75799 344.70789 260.82195 373.16908 255.00492 394.14712 C 252.99652 401.39003 252.99514 401.50342 254.97171 398.91665 C 256.08506 397.45963 259.84164 390.7473 263.31937 384.00064 C 275.37355 360.61599 278.92867 346.16785 278.14749 323.73306 C 277.69329 310.68894 274.49821 289.7535 273.05765 290.3815 z M 250.65335 327.29165 L 246.19242 332.97915 C 243.73927 336.10712 238.92098 341.39338 235.48538 344.7272 L 229.23929 350.7897 L 230.35257 361.64126 C 231.74251 375.18586 231.76228 392.71295 230.40531 408.0397 C 229.41123 419.26786 226.89212 435.86115 225.53226 440.13345 C 224.49116 443.40426 230.04192 436.50878 234.76468 428.6647 C 248.83024 405.30305 257.07673 369.0638 254.10062 343.6979 C 253.41586 337.8615 252.36072 331.78345 251.75492 330.19009 L 250.65335 327.29165 z M 120.65531 329.44986 L 119.56937 333.52408 C 112.99968 358.16957 110.52597 376.49952 111.2471 395.19986 C 112.14082 418.3758 117.2614 432.85153 128.91703 445.15494 C 134.12632 450.65374 144.5329 459.73306 145.62601 459.73306 C 145.82849 459.73306 144.34286 456.1605 142.32523 451.79361 C 134.47456 434.80184 130.35827 410.50382 132.23929 392.27212 C 133.31397 381.85588 134.60264 376.51441 138.28031 367.24869 L 140.90726 360.62955 L 136.58499 351.6979 C 134.20733 346.78563 130.99698 341.6052 129.45218 340.18423 C 127.90738 338.76327 125.29618 335.76549 123.64945 333.52408 L 120.65531 329.44986 z M 298.7764 344.21158 C 298.74603 344.22166 298.72761 344.27472 298.72367 344.37369 C 298.5921 347.67544 290.87771 363.44762 285.2764 371.86587 C 281.96331 376.84513 275.40815 384.85167 270.70999 389.65884 C 266.01185 394.46603 260.21674 401.27947 257.83304 404.79947 C 255.44935 408.31946 251.51516 413.84038 249.0889 417.06705 C 246.66264 420.2937 243.32 425.28872 241.66117 428.16861 C 238.0458 434.44521 238.53985 434.37904 251.06937 426.88931 C 273.67065 413.379 294.88605 385.6458 301.21781 361.33658 C 302.63319 355.90257 302.5954 354.87237 300.77249 349.16665 C 299.81408 346.16681 298.98899 344.14096 298.7764 344.21158 z M 223.17679 356.03384 C 222.36771 356.21746 220.97594 358.2166 217.59085 363.26431 C 214.46743 367.92186 209.05698 375.44654 205.56742 379.98501 L 199.22367 388.23697 L 200.97367 392.61001 C 204.12964 400.49756 205.09265 417.41296 203.82718 442.68619 C 203.18865 455.43875 202.68157 468.93242 202.70023 472.67056 C 202.73213 479.06694 202.83418 479.34039 204.42874 477.33267 C 205.36063 476.15934 208.2609 470.74936 210.87406 465.30923 C 216.27501 454.06537 220.9133 436.99756 223.60257 418.47134 C 225.64621 404.39282 226.13733 361.9748 224.3096 357.39908 C 223.93795 356.46863 223.66224 355.92367 223.17679 356.03384 z M 405.66117 360.19205 L 397.44437 360.88736 C 387.4578 361.73153 385.07106 362.85177 385.0557 366.70376 C 385.0387 370.95946 382.3289 379.17678 378.78421 385.72134 C 377.07259 388.88151 375.89892 391.46744 376.17679 391.46744 C 376.45466 391.46744 378.73656 390.05412 381.2471 388.32681 C 387.22414 384.2145 399.84618 370.61716 403.09671 364.7897 L 405.66117 360.19205 z M 307.06742 362.70962 C 306.70075 362.68582 306.09809 364.17349 305.72953 366.01626 C 304.64551 371.43638 296.04884 388.6778 290.25492 397.04947 C 287.30458 401.31244 281.74909 408.1596 277.91117 412.26626 C 274.07324 416.37292 270.93477 420.30061 270.9346 420.99283 C 270.93443 421.68505 268.77382 433.25394 266.13382 446.70181 C 263.49383 460.14969 261.33304 471.52157 261.33304 471.9733 C 261.33304 473.74317 265.25087 469.40878 272.79203 459.29556 C 291.87442 433.70476 311.77967 392.90757 314.2432 374.33658 C 314.93193 369.1447 314.81789 368.81097 311.34671 365.84244 C 309.35958 364.14305 307.43408 362.73346 307.06742 362.70962 z M 378.77445 364.02798 C 377.18355 364.06685 372.57329 365.02143 362.00101 367.45181 C 359.96984 367.91874 359.68281 368.88409 359.23148 376.7858 C 358.67837 386.46946 355.62161 395.37118 349.97562 403.73697 C 348.19507 406.37523 347.08865 408.53384 347.51663 408.53384 C 347.94461 408.53384 350.92026 406.76631 354.12796 404.60611 C 362.42386 399.01932 369.33734 391.41196 373.7471 383.02017 C 377.29799 376.26282 380.59475 365.30727 379.42874 364.14126 C 379.34701 364.05953 379.14158 364.01901 378.77445 364.02798 z M 145.35453 364.69986 L 143.06937 370.35025 C 139.47841 379.22994 137.63736 389.9807 137.62601 402.13345 C 137.59231 438.26071 153.15176 470.75385 181.13578 492.99673 C 185.42753 496.40801 189.11848 499.19986 189.33695 499.19986 C 189.55543 499.19986 187.76464 495.96063 185.35648 492.00064 C 176.82053 477.96401 169.97093 458.42574 167.50296 441.06705 C 166.00143 430.50588 166.21471 411.58615 167.94437 401.8854 L 169.41507 393.63931 L 163.09281 387.17642 C 159.61547 383.62266 155.34109 378.18044 153.59281 375.08267 C 151.84454 371.9849 149.27476 368.38158 147.88382 367.07486 L 145.35453 364.69986 z M 353.03226 369.34439 C 352.81897 369.33352 352.56666 369.37993 352.26663 369.46744 C 351.23997 369.76689 348.18829 370.32295 345.48538 370.70376 L 340.57132 371.39712 L 339.37796 379.83267 C 337.78473 391.09874 333.80341 402.6699 327.34281 414.80337 L 322.01663 424.80533 L 326.07523 421.55142 C 328.30751 419.76188 332.86658 415.50132 336.20609 412.08267 C 347.01141 401.02128 354.13382 385.97634 354.13382 374.21548 C 354.13382 370.52908 353.95652 369.3915 353.03226 369.34439 z M 323.15531 371.28384 C 320.35047 371.37239 320.15359 372.95285 319.14749 378.2565 C 316.41554 392.65809 303.84014 421.13707 290.65726 442.77603 C 287.43574 448.06396 284.79984 452.6326 284.79984 452.92837 C 284.79984 453.81838 293.90028 446.99995 300.16898 441.41275 C 316.95219 426.45412 333.86624 393.87531 333.86624 376.50845 C 333.86624 372.6167 333.7916 372.54573 328.91703 371.87759 C 326.24304 371.51108 324.43023 371.24359 323.15531 371.28384 z M 174.63578 397.57486 C 174.5937 397.58242 174.5646 397.60129 174.54593 397.6315 C 173.18741 399.82964 171.56471 422.5956 172.2139 430.35611 C 173.7903 449.20079 180.03594 471.38253 187.39163 484.26626 C 190.35091 489.44953 196.39028 499.20037 196.64359 499.20181 C 196.72909 499.2023 196.79984 492.84086 196.79984 485.06705 C 196.79984 477.29323 197.23305 458.17242 197.76273 442.57486 L 198.72562 414.21548 L 193.87015 411.86392 C 191.19926 410.57096 185.88131 406.6425 182.05179 403.13345 C 178.46163 399.84372 175.26698 397.46148 174.63578 397.57486 z "
       transform="translate(-29.409213,-17.223295)" />
    <path
       id="path4"
       style="fill:#c8ab37"
       d="M 254.4639 210.13345 C 250.62132 210.13345 250.38508 211.44798 253.00296 218.32095 C 255.30648 224.36861 255.38976 224.44808 256.09281 221.33267 C 256.48999 219.57267 256.87104 216.33345 256.94046 214.13345 C 257.05291 210.56922 256.78397 210.13345 254.4639 210.13345 z M 220.32913 214.39908 C 216.48656 214.39908 216.25226 215.71555 218.87015 222.58853 C 221.17367 228.63617 221.25499 228.71565 221.95804 225.60025 C 222.35522 223.84025 222.73824 220.59907 222.80765 218.39908 C 222.92011 214.83485 222.64919 214.39908 220.32913 214.39908 z M 239.69242 220.23111 C 239.25768 220.25837 238.93265 220.94328 238.93265 222.33658 C 238.93265 223.97103 239.53439 225.06705 240.43265 225.06705 C 241.41151 225.06705 241.73895 224.31952 241.3721 222.91665 C 240.90321 221.12361 240.2171 220.19821 239.69242 220.23111 z M 217.14359 227.73306 L 216.5264 230.93423 C 216.18723 232.69423 216.38849 234.46263 216.97171 234.86392 C 218.98108 236.24647 219.60198 234.61099 218.37406 231.17642 L 217.14359 227.73306 z "
       transform="translate(-29.409213,-17.223295)" />
  </g>
</svg>
